# xmcd
#
# Track frame offsets:
#	150
#	16179
#	39023
#	49442
#	65788
#	85526
#	100453
#	113433
#	125113
#
# Disc length: 1823 seconds
#
# Revision: 0
# Processed by: cddbd v1.4PL0 Copyright (c) Steve Scherf et al.
# Submitted via: dBpowerAMP V4.0
#
DISCID=6f071d09
DTITLE=Justin McRoberts - Untitled EP
DYEAR=1900
DGENRE=
TTITLE0=Learning To Need You
TTITLE1=I Will Come
TTITLE2=Make Me Like You
TTITLE3=King Of Mercy
TTITLE4=Making Noises
TTITLE5=I Give You My Life
TTITLE6=More Than Anything
TTITLE7=How Great Thou Art
TTITLE8=All I Want
EXTD=
EXTT0=
EXTT1=
EXTT2=
EXTT3=
EXTT4=
EXTT5=
EXTT6=
EXTT7=
EXTT8=
PLAYORDER=
